<?xml version="1.0" standalone="no"?> <!DOCTYPE svg PUBLIC "-//W3C//DTD SVG 1.0//EN" "http://www.w3.org/TR/2001/REC-SVG-20010904/DTD/svg10.dtd" > <svg xmlns="http://www.w3.org/2000/svg" width="100%" height="100%">
<defs >
<font id="segoewpbold" horiz-adv-x="969" ><font-face
    font-family="Segoe WP"
    units-per-em="2048"
    panose-1="2 11 8 2 4 2 4 2 2 3"
    ascent="1491"
    descent="-431"
    alphabetic="0" />
<missing-glyph horiz-adv-x="1322" d="M1156 0H166V1398H1156V0ZM314 1250V148H1008V1250H314Z" />
<glyph unicode=" " glyph-name="space" horiz-adv-x="565" />
<glyph unicode="!" glyph-name="exclam" horiz-adv-x="670" d="M168 1434H500L461 446H205L168 1434ZM336 -23Q256 -23 204 25Q152 74 152 143Q152 215 204 261T336 307Q415 307 467 260Q518 214 518 143Q518 70 467 24Q417 -23 336 -23Z" />
<glyph unicode="&quot;" glyph-name="quotedbl" horiz-adv-x="1010" d="M571 1452H834L803 1008H602L571 1452ZM176 1452H438L408 1010H205L176 1452Z" />
<glyph unicode="#" glyph-name="numbersign" horiz-adv-x="1213" d="M991 1069H1176L1137 889H952L897 641H1104L1059 461H860L782 115H582L655 461H426L352 115H152L223 461H37L74 641H262L315 889H113L147 1069H352L426 1425H631L557 1069H786L862 1425H1065L991
1069ZM694 641L750 889H518L463 641H694Z" />
<glyph unicode="$" glyph-name="dollar" horiz-adv-x="1178" d="M674 8V-209H528V2Q324 4 150 94V371Q209 324 323 284T528 238V602Q294 689 208 790Q123 891 123 1038Q123 1196 234 1305Q345 1416 528 1434V1620H674V1438Q887 1427 989 1370V1100Q851 1184 674
1204V825Q894 745 988 644Q1083 543 1083 399Q1083 233 977 132T674 8ZM528 883V1200Q389 1175 389 1055Q389 952 528 883ZM674 545V242Q817 265 817 385Q817 483 674 545Z" />
<glyph unicode="%" glyph-name="percent" horiz-adv-x="1776" d="M430 707Q277 707 183 804Q90 902 90 1065Q90 1244 189 1349Q289 1454 455 1454Q614 1454 703 1359Q793 1264 793 1092Q793 914 694 811Q595 707 430 707ZM449 1278Q303 1278 303 1075Q303 883
442 883Q584 883 584 1083Q584 1278 449 1278ZM1231 1434H1477L543 0H299L1231 1434ZM1323 -20Q1170 -20 1076 77Q983 174 983 338Q983 517 1082 622Q1182 727 1348 727Q1508 727 1597 633T1686 367Q1686 190 1587 85T1323 -20ZM1339 551Q1194 551 1194 348Q1194
156 1335 156Q1477 156 1477 356Q1477 448 1440 499T1339 551Z" />
<glyph unicode="&amp;" glyph-name="ampersand" horiz-adv-x="1485" d="M1204 295L1483 -2H1122L1014 119Q939 57 821 17Q696 -25 573 -25Q336 -25 206 90Q84 197 84 371Q84 610 412 782Q266 957 266 1108Q266 1261 382 1359Q499 1458 686 1458Q874 1458 980 1362Q1077
1274 1077 1143Q1077 1018 1008 931Q939 846 778 766L1049 473Q1124 596 1124 770H1380Q1380 488 1204 295ZM819 1122Q819 1180 776 1220Q738 1257 686 1257Q621 1257 578 1222Q530 1183 530 1114Q530 1038 651 905Q819 998 819 1122ZM866 281L543 635Q381 546
381 399Q381 299 454 242Q516 193 604 193Q760 193 866 281Z" />
<glyph unicode="&apos;" glyph-name="quotesingle" horiz-adv-x="600" d="M170 1452H430L399 1010H199L170 1452Z" />
<glyph unicode="(" glyph-name="parenleft" horiz-adv-x="756" d="M739 -326H481Q158 30 158 549Q158 1049 481 1434H737Q434 1032 434 549T739 -326Z" />
<glyph unicode=")" glyph-name="parenright" horiz-adv-x="756" d="M274 -326H18Q324 64 324 549Q324 1030 18 1434H276Q600 1048 600 549Q600 35 274 -326Z" />
<glyph unicode="*" glyph-name="asterisk" horiz-adv-x="932" d="M791 1255L864 1053L590 1016L786 805L604 680L467 934L330 680L147 805L344 1016L70 1053L141 1255L393 1147L350 1434H584L541 1147L791 1255Z" />
<glyph unicode="+" glyph-name="plus" horiz-adv-x="1448" d="M1212 688V485H827V100H625V485H238V688H625V1075H827V688H1212Z" />
<glyph unicode="," glyph-name="comma" horiz-adv-x="555" d="M141 252H432L285 -254H39L141 252Z" />
<glyph unicode="-" glyph-name="hyphen" horiz-adv-x="828" d="M690 657V436H143V657H690Z" />
<glyph unicode="." glyph-name="period" horiz-adv-x="555" d="M274 -25Q196 -25 144 23T92 141Q92 212 145 259Q198 305 279 305Q359 305 411 258Q463 212 463 141Q463 68 410 21Q358 -25 274 -25Z" />
<glyph unicode="/" glyph-name="slash" horiz-adv-x="908" d="M647 1434H932L233 -238H-49L647 1434Z" />
<glyph unicode="0" glyph-name="zero" horiz-adv-x="1178" d="M581 -25Q69 -25 69 694Q69 1067 207 1262T609 1458Q1109 1458 1109 727Q1109 363 972 169T581 -25ZM595 1217Q390 1217 390 702Q390 217 591 217Q787 217 787 717T595 1217Z" />
<glyph unicode="1" glyph-name="one" horiz-adv-x="889" d="M509 1466H700V0H385V1110Q333 1064 249 1030T80 985V1251Q318 1321 509 1466Z" />
<glyph unicode="2" glyph-name="two" horiz-adv-x="1178" d="M429 262H1037V0H83V108Q83 325 257 506Q327 578 487 699Q500 709 505 713Q608 791 662 862T717 1020Q717 1206 506 1206Q322 1206 152 1059V1337Q339 1458 574 1458Q792 1458 915 1349T1039 1051Q1039
1008 1032 968T1015 893T984 824T947 762T900 704T849 651T790 599T730 551T666 501Q650 489 612 459T557 416T512 379T471 338T445 302T429 262Z" />
<glyph unicode="3" glyph-name="three" horiz-adv-x="1178" d="M117 47V322Q261 217 453 217Q574 217 641 269T709 414Q709 509 626 561T396 614H263V856H386Q666 856 666 1042Q666 1217 451 1217Q308 1217 171 1124V1382Q322 1458 523 1458Q744 1458 865 1359Q988
1260 988 1102Q988 820 703 750V745Q854 726 943 634Q1031 543 1031 410Q1031 209 884 92T478 -25Q256 -25 117 47Z" />
<glyph unicode="4" glyph-name="four" horiz-adv-x="1178" d="M579 1434H885Q782 1198 635 960T337 529L669 530V843H957V530H1139V295H957V0H669V295H44V529Q188 713 335 961T579 1434Z" />
<glyph unicode="5" glyph-name="five" horiz-adv-x="1178" d="M142 37V307Q289 217 455 217Q580 217 650 276T721 438Q721 651 420 651Q314 651 164 634L218 1434H977V1176H459L439 889Q516 895 572 895Q793 895 918 779T1043 467Q1043 250 894 112Q745 -25 490
-25Q284 -25 142 37Z" />
<glyph unicode="6" glyph-name="six" horiz-adv-x="1178" d="M412 792H417Q523 922 704 922Q877 922 987 798T1098 465Q1098 242 967 109T598 -24Q364 -24 226 124T88 532Q88 807 220 1042T578 1434H954Q716 1281 585 1126T412 792ZM789 450Q789 561 740 624T604
688Q516 688 464 626T411 455Q411 351 466 284T604 217Q687 217 738 282T789 450Z" />
<glyph unicode="7" glyph-name="seven" horiz-adv-x="1178" d="M1098 1434V1252Q888 873 782 602T626 0H296Q349 315 468 601T766 1176H98V1434H1098Z" />
<glyph unicode="8" glyph-name="eight" horiz-adv-x="1178" d="M80 386Q80 510 152 607T361 751Q252 805 192 890T132 1077Q132 1242 262 1350T592 1458Q795 1458 925 1351T1055 1081Q1055 980 992 897T814 758Q951 711 1024 613T1098 389Q1098 206 957 92T589
-23Q366 -23 223 90T80 386ZM379 413Q379 316 436 260T590 203Q683 203 742 260T801 413Q801 502 742 563T590 625Q499 625 439 566T379 413ZM423 1048Q423 972 473 919T594 866T715 919T766 1048Q766 1126 717 1178T594 1231Q519 1231 471 1178T423 1048Z" />
<glyph unicode="9" glyph-name="nine" horiz-adv-x="1178" d="M768 642H763Q657 512 476 512Q303 512 193 636T82 969Q82 1192 213 1325T582 1458Q816 1458 954 1310T1092 902Q1092 628 963 393T613 0H226Q464 153 595 308T768 642ZM391 984Q391 873 440 810T576
746Q664 746 716 808T769 979Q769 1083 714 1150T576 1217Q493 1217 442 1152T391 984Z" />
<glyph unicode=":" glyph-name="colon" horiz-adv-x="555" d="M274 707Q197 707 144 754Q92 802 92 872Q92 943 145 990Q198 1036 279 1036Q359 1036 411 989Q463 943 463 872Q463 800 410 753Q358 707 274 707ZM274 -25Q196 -25 144 23T92 141Q92 212 145 259Q198
305 279 305Q359 305 411 258Q463 212 463 141Q463 68 410 21Q358 -25 274 -25Z" />
<glyph unicode=";" glyph-name="semicolon" horiz-adv-x="555" d="M281 707Q202 707 150 755T98 872Q98 945 150 990Q202 1036 283 1036Q363 1036 415 989Q467 943 467 872Q467 799 416 753T281 707ZM141 252H432L285 -254H39L141 252Z" />
<glyph unicode="&lt;" glyph-name="less" horiz-adv-x="1448" d="M1192 301V63L258 489V651L1192 1098V860L526 575V569L1192 301Z" />
<glyph unicode="=" glyph-name="equal" horiz-adv-x="1448" d="M1212 905V700H238V905H1212ZM1212 469V266H238V469H1212Z" />
<glyph unicode="&gt;" glyph-name="greater" horiz-adv-x="1448" d="M1192 664V502L258 76V313L926 580V584L258 870V1108L1192 664Z" />
<glyph unicode="?" glyph-name="question" horiz-adv-x="897" d="M526 415H263Q242 472 242 535Q242 624 276 688T386 815Q470 886 505 936T541 1052Q541 1115 498 1155T383 1196Q211 1196 62 1065V1366Q217 1458 418 1458Q513 1458 591 1437T730 1374T823 1260T857
1096Q857 980 807 899T643 724Q564 659 533 615T502 506Q502 452 526 415ZM409 -23Q328 -23 276 25Q223 75 223 143Q223 213 276 260T409 307Q487 307 540 260Q592 214 592 143Q592 70 541 24Q488 -23 409 -23Z" />
<glyph unicode="@" glyph-name="at" horiz-adv-x="1954" d="M1122 371H1116Q1045 180 862 180Q724 180 639 280Q555 380 555 557Q555 786 672 929Q789 1073 954 1073Q1104 1073 1141 956H1145L1155 1055H1380Q1335 629 1335 498Q1335 358 1411 358Q1491 358 1543
464Q1595 569 1595 741Q1595 975 1446 1124Q1298 1274 1030 1274Q745 1274 554 1074Q365 874 365 588Q365 311 532 150Q699 -10 995 -10Q1218 -10 1407 76V-115Q1237 -188 967 -188Q598 -188 366 23Q135 234 135 592Q135 957 382 1204Q630 1452 1018 1452Q1379
1452 1600 1259Q1823 1067 1823 752Q1823 493 1687 336Q1550 180 1350 180Q1251 180 1189 233Q1126 286 1122 371ZM989 899Q899 899 842 796Q786 693 786 559Q786 465 824 411T924 356Q1018 356 1072 457Q1126 558 1126 727Q1126 807 1089 853T989 899Z" />
<glyph unicode="A" glyph-name="A" horiz-adv-x="1440" d="M915 1434L1425 0H1073L971 319H461L360 0H10L532 1434H915ZM530 567H897L743 1049Q726 1103 719 1178H711Q707 1118 686 1053L530 567Z" />
<glyph unicode="B" glyph-name="B" horiz-adv-x="1313" d="M715 0H164V1434H686Q925 1434 1054 1346T1184 1098Q1184 981 1105 895Q1028 809 905 774V770Q1059 750 1149 657Q1241 562 1241 428Q1241 230 1100 115Q960 0 715 0ZM608 1196H487V856H629Q729 856 786
904T844 1038Q844 1196 608 1196ZM664 616H487V238H662Q774 238 837 290T901 432Q901 518 839 567T664 616Z" />
<glyph unicode="C" glyph-name="C" horiz-adv-x="1278" d="M1192 346V51Q1036 -25 782 -25Q452 -25 263 169Q74 362 74 686Q74 1029 286 1244Q499 1458 838 1458Q1047 1458 1192 1405V1094Q1047 1180 864 1180Q662 1180 538 1053T414 709Q414 502 531 377Q648
254 846 254Q1034 254 1192 346Z" />
<glyph unicode="D" glyph-name="D" horiz-adv-x="1510" d="M672 0H164V1434H672Q1436 1434 1436 735Q1436 400 1227 200T672 0ZM645 1171H487V262H647Q858 262 976 388Q1096 514 1096 731Q1096 936 977 1053Q859 1171 645 1171Z" />
<glyph unicode="E" glyph-name="E" horiz-adv-x="1090" d="M1024 262V0H164V1434H991V1171H487V852H956V590H487V262H1024Z" />
<glyph unicode="F" glyph-name="F" horiz-adv-x="1065" d="M993 1434V1171H487V819H952V557H487V0H164V1434H993Z" />
<glyph unicode="G" glyph-name="G" horiz-adv-x="1456" d="M1341 817V96Q1132 -25 819 -25Q473 -25 273 166Q74 358 74 694Q74 1032 292 1245T872 1458Q1100 1458 1274 1395V1092Q1108 1188 868 1188Q668 1188 540 1057Q414 926 414 709Q414 489 527 367Q641 246
834 246Q950 246 1018 279V559H731V817H1341Z" />
<glyph unicode="H" glyph-name="H" horiz-adv-x="1569" d="M1405 1434V0H1081V584H487V0H164V1434H487V862H1081V1434H1405Z" />
<glyph unicode="I" glyph-name="I" horiz-adv-x="649" d="M164 1434H487V0H164V1434Z" />
<glyph unicode="J" glyph-name="J" horiz-adv-x="912" d="M762 1434V569Q762 281 629 128T242 -25Q129 -25 33 14V317Q116 254 219 254Q440 254 440 582V1434H762Z" />
<glyph unicode="K" glyph-name="K" horiz-adv-x="1329" d="M813 750L1356 0H948L530 623Q516 644 492 702H487V0H164V1434H487V756H492Q504 784 532 836L928 1434H1313L813 750Z" />
<glyph unicode="L" glyph-name="L" horiz-adv-x="1047" d="M1018 262V0H164V1434H487V262H1018Z" />
<glyph unicode="M" glyph-name="M" horiz-adv-x="1960" d="M1798 1434V0H1479V858Q1479 997 1491 1165H1483Q1458 1034 1438 975L1102 0H838L496 965Q483 1003 451 1165H442Q455 961 455 793V0H164V1434H637L930 584Q965 482 981 379H987Q1014 498 1044 586L1337
1434H1798Z" />
<glyph unicode="N" glyph-name="N" horiz-adv-x="1618" d="M1454 1434V0H1128L537 901Q483 983 465 1020H461Q469 938 469 788V0H164V1434H512L1081 561Q1120 502 1153 444H1157Q1149 497 1149 641V1434H1454Z" />
<glyph unicode="O" glyph-name="O" horiz-adv-x="1553" d="M770 -25Q462 -25 268 175Q74 377 74 698Q74 1037 271 1248Q468 1458 793 1458Q1100 1458 1289 1257Q1479 1057 1479 727Q1479 390 1282 182Q1086 -25 770 -25ZM784 1180Q615 1180 514 1052Q414 925 414
715Q414 502 514 378T776 254Q944 254 1041 374Q1139 496 1139 709Q1139 931 1044 1056Q950 1180 784 1180Z" />
<glyph unicode="P" glyph-name="P" horiz-adv-x="1258" d="M641 494H487V0H164V1434H670Q1212 1434 1212 977Q1212 760 1056 627Q902 494 641 494ZM614 1186H487V739H614Q872 739 872 965Q872 1186 614 1186Z" />
<glyph unicode="Q" glyph-name="Q" horiz-adv-x="1553" d="M770 -25Q462 -25 268 175Q74 378 74 698Q74 1036 271 1248Q468 1458 793 1458Q1100 1458 1289 1257Q1479 1058 1479 727Q1479 391 1282 182L1256 156L1619 -193H1167L977 0Q884 -25 770 -25ZM784 1180Q615
1180 514 1052Q414 925 414 715Q414 502 514 378T776 254Q944 254 1041 374Q1139 496 1139 709Q1139 931 1044 1056Q950 1180 784 1180Z" />
<glyph unicode="R" glyph-name="R" horiz-adv-x="1337" d="M1096 424L1367 0H996L773 369Q718 462 674 505T574 549H487V0H164V1434H676Q1198 1434 1198 1044Q1198 897 1112 793T876 645V641Q980 609 1096 424ZM633 1192H487V793H627Q731 793 794 853Q858 914
858 1004Q858 1192 633 1192Z" />
<glyph unicode="S" glyph-name="S" horiz-adv-x="1148" d="M98 55V375Q273 229 493 229Q611 229 673 269T736 374Q736 406 719 435T679 486T610 533T527 574T425 617Q256 687 174 788T92 1032Q92 1119 121 1190T202 1311T325 1393T479 1442T655 1458Q869 1458
1013 1403V1104Q943 1152 851 1178T673 1204Q563 1204 498 1165T432 1059Q432 994 497 946T703 840Q795 801 858 763T974 673T1051 555T1076 403Q1076 310 1046 237T965 115T840 34T685 -11T507 -25Q255 -25 98 55Z" />
<glyph unicode="T" glyph-name="T" horiz-adv-x="1200" d="M1171 1434V1171H762V0H438V1171H31V1434H1171Z" />
<glyph unicode="U" glyph-name="U" horiz-adv-x="1481" d="M1333 1434V621Q1333 -25 731 -25Q147 -25 147 606V1434H471V602Q471 254 743 254Q1010 254 1010 590V1434H1333Z" />
<glyph unicode="V" glyph-name="V" horiz-adv-x="1366" d="M1020 1434H1358L864 0H498L10 1434H358L657 436Q682 353 686 293H692Q700 363 723 440L1020 1434Z" />
<glyph unicode="W" glyph-name="W" horiz-adv-x="2058" d="M1714 1434H2040L1661 0H1303L1065 920Q1047 987 1042 1081H1038Q1029 986 1012 920L768 0H395L18 1434H371L573 479Q586 420 592 315H598Q603 396 627 483L887 1434H1233L1468 471Q1480 426 1491 317H1495Q1499
396 1516 477L1714 1434Z" />
<glyph unicode="X" glyph-name="X" horiz-adv-x="1342" d="M893 723L1335 0H952L705 467Q691 494 676 563H672Q665 531 639 463L391 0H6L463 717L45 1434H438L643 1004Q666 955 686 883H690Q702 927 735 1008L963 1434H1323L893 723Z" />
<glyph unicode="Y" glyph-name="Y" horiz-adv-x="1243" d="M903 1434H1245L778 510V0H455V504L0 1434H369L600 899Q606 884 633 782H637Q651 857 668 895L903 1434Z" />
<glyph unicode="Z" glyph-name="Z" horiz-adv-x="1243" d="M1196 262V0H41V186L776 1171H94V1434H1194V1253L475 262H1196Z" />
<glyph unicode="[" glyph-name="bracketleft" horiz-adv-x="756" d="M686 -125V-326H217V1434H686V1233H477V-125H686Z" />
<glyph unicode="\" glyph-name="backslash" horiz-adv-x="893" d="M281 1434L961 -238H682L0 1434H281Z" />
<glyph unicode="]" glyph-name="bracketright" horiz-adv-x="756" d="M541 1434V-326H70V-125H281V1233H70V1434H541Z" />
<glyph unicode="^" glyph-name="asciicircum" horiz-adv-x="1448" d="M795 1458L1249 610H1006L719 1196H715L444 610H203L633 1458H795Z" />
<glyph unicode="_" glyph-name="underscore" horiz-adv-x="850" d="M850 -178V-297H0V-178H850Z" />
<glyph unicode="`" glyph-name="grave" horiz-adv-x="643" d="M336 1509L596 1186H369L55 1509H336Z" />
<glyph unicode="a" glyph-name="a" horiz-adv-x="1102" d="M985 612V0H686V147H682Q579 -25 377 -25Q228 -25 142 59Q57 144 57 285Q57 582 410 629L688 666Q688 834 506 834Q322 834 158 725V963Q224 998 338 1023Q456 1049 547 1049Q985 1049 985 612ZM688 416V485L502
461Q348 442 348 322Q348 267 386 233T487 199Q577 199 632 260Q688 322 688 416Z" />
<glyph unicode="b" glyph-name="b" horiz-adv-x="1270" d="M453 119H449V0H133V1516H449V870H453Q570 1049 786 1049Q985 1049 1091 913Q1198 776 1198 541Q1198 285 1073 130T739 -25Q550 -25 453 119ZM444 551V446Q444 346 501 282Q558 217 647 217Q755 217
814 300T874 537Q874 665 820 736T664 807Q569 807 506 736Q444 665 444 551Z" />
<glyph unicode="c" glyph-name="c" horiz-adv-x="983" d="M909 291V37Q802 -25 600 -25Q364 -25 218 118T72 487Q72 748 228 898Q385 1049 647 1049Q828 1049 909 1001V733Q809 807 688 807Q552 807 472 727Q393 648 393 508Q393 372 469 295T678 217Q796 217 909 291Z" />
<glyph unicode="d" glyph-name="d" horiz-adv-x="1268" d="M1135 1516V0H819V141H815Q707 -25 498 -25Q306 -25 189 110Q72 246 72 489Q72 743 201 896T539 1049Q737 1049 815 907H819V1516H1135ZM825 498V575Q825 676 767 741Q708 807 616 807Q511 807 452 725T393
498Q393 364 449 291T608 217Q704 217 764 294Q825 370 825 498Z" />
<glyph unicode="e" glyph-name="e" horiz-adv-x="1108" d="M1053 555V422H385Q401 199 666 199Q835 199 963 279V51Q821 -25 594 -25Q346 -25 209 112Q72 251 72 496Q72 752 220 900Q369 1049 584 1049Q809 1049 930 916Q1053 782 1053 555ZM383 616H760Q760 836
582 836Q506 836 450 773Q395 711 383 616Z" />
<glyph unicode="f" glyph-name="f" horiz-adv-x="785" d="M801 1520V1274Q740 1298 684 1298Q532 1298 532 1133V1024H766V791H532V0H217V791H45V1024H217V1151Q217 1326 331 1433Q446 1540 641 1540Q735 1540 801 1520Z" />
<glyph unicode="g" glyph-name="g" horiz-adv-x="1268" d="M1137 1024V117Q1137 -168 972 -324Q808 -481 494 -481Q289 -481 166 -422V-156Q324 -248 485 -248Q645 -248 733 -163Q821 -79 821 66V147H817Q709 -25 498 -25Q302 -25 187 113Q72 250 72 483Q72 742
200 896Q328 1049 537 1049Q724 1049 817 905H821V1024H1137ZM825 492V573Q825 671 767 738Q710 807 618 807Q512 807 453 725T393 494Q393 366 450 291Q507 217 606 217Q704 217 764 292Q825 368 825 492Z" />
<glyph unicode="h" glyph-name="h" horiz-adv-x="1233" d="M1116 629V0H801V582Q801 807 637 807Q554 807 501 744Q449 682 449 584V0H133V1516H449V872H453Q568 1049 768 1049Q1116 1049 1116 629Z" />
<glyph unicode="i" glyph-name="i" horiz-adv-x="582" d="M293 1186Q214 1186 162 1233Q111 1281 111 1350Q111 1421 162 1466T293 1511Q374 1511 424 1466Q475 1421 475 1350Q475 1278 424 1232Q375 1186 293 1186ZM449 1024V0H133V1024H449Z" />
<glyph unicode="j" glyph-name="j" horiz-adv-x="582" d="M293 1186Q214 1186 162 1233Q111 1281 111 1350Q111 1421 162 1466T293 1511Q374 1511 424 1466Q475 1421 475 1350Q475 1278 424 1232Q375 1186 293 1186ZM449 1024V18Q449 -208 338 -345Q227 -481 18
-481Q-50 -481 -133 -451V-203Q-68 -240 -16 -240Q133 -240 133 -6V1024H449Z" />
<glyph unicode="k" glyph-name="k" horiz-adv-x="1145" d="M766 543L1159 0H780L453 508H449V0H133V1516H449V551H453L758 1024H1133L766 543Z" />
<glyph unicode="l" glyph-name="l" horiz-adv-x="582" d="M449 1516V0H133V1516H449Z" />
<glyph unicode="m" glyph-name="m" horiz-adv-x="1876" d="M1759 637V0H1444V584Q1444 807 1280 807Q1202 807 1153 740T1104 573V0H788V590Q788 807 627 807Q546 807 498 743T449 569V0H133V1024H449V864H453Q503 947 590 997Q678 1049 784 1049Q1001 1049 1081
858Q1198 1049 1425 1049Q1759 1049 1759 637Z" />
<glyph unicode="n" glyph-name="n" horiz-adv-x="1239" d="M1122 627V0H807V569Q807 807 637 807Q554 807 502 744Q449 680 449 584V0H133V1024H449V862H453Q565 1049 782 1049Q1122 1049 1122 627Z" />
<glyph unicode="o" glyph-name="o" horiz-adv-x="1252" d="M621 -25Q366 -25 218 118Q72 262 72 508Q72 762 224 905Q376 1049 635 1049Q890 1049 1035 905Q1180 763 1180 526Q1180 272 1030 123Q882 -25 621 -25ZM629 807Q517 807 455 730T393 512Q393 217 631
217Q858 217 858 520Q858 807 629 807Z" />
<glyph unicode="p" glyph-name="p" horiz-adv-x="1270" d="M453 119H449V-471H133V1024H449V870H453Q570 1049 782 1049Q981 1049 1089 912Q1198 776 1198 541Q1198 284 1071 130Q945 -25 735 -25Q550 -25 453 119ZM444 539V457Q444 352 500 284Q555 217 647 217Q755
217 814 300T874 537Q874 807 664 807Q567 807 505 733Q444 660 444 539Z" />
<glyph unicode="q" glyph-name="q" horiz-adv-x="1268" d="M1135 1024V-471H819V141H815Q709 -25 500 -25Q308 -25 189 109Q72 244 72 487Q72 743 201 896T537 1049Q725 1049 815 905H819V1024H1135ZM825 489V571Q825 672 767 739Q708 807 618 807Q513 807 453
725T393 496Q393 364 451 291Q510 217 604 217Q704 217 764 292Q825 366 825 489Z" />
<glyph unicode="r" glyph-name="r" horiz-adv-x="815" d="M801 1030V739Q745 770 668 770Q566 770 508 695T449 489V0H133V1024H449V834H453Q528 1042 723 1042Q772 1042 801 1030Z" />
<glyph unicode="s" glyph-name="s" horiz-adv-x="901" d="M66 27V283Q220 190 368 190Q549 190 549 283Q549 306 536 324T495 355T443 378T378 400T316 422Q186 471 126 537T66 723Q66 806 103 870T204 973T346 1030T514 1049Q652 1049 790 1008V764Q671 834 527
834Q461 834 418 812T375 748Q375 732 380 719T399 694T423 675T458 657T494 643T535 629T575 616Q715 567 783 501T852 313Q852 225 813 158T707 52T557 -6T379 -25Q209 -25 66 27Z" />
<glyph unicode="t" glyph-name="t" horiz-adv-x="797" d="M752 246V12Q682 -25 541 -25Q207 -25 207 322V791H41V1024H207V1245L522 1335V1024H752V791H522V377Q522 217 649 217Q699 217 752 246Z" />
<glyph unicode="u" glyph-name="u" horiz-adv-x="1239" d="M1106 1024V0H791V156H786Q669 -25 473 -25Q117 -25 117 406V1024H432V434Q432 217 604 217Q689 217 740 276T791 438V1024H1106Z" />
<glyph unicode="v" glyph-name="v" horiz-adv-x="1110" d="M778 1024H1108L727 0H367L4 1024H342L520 393Q551 284 555 211H559Q567 285 596 387L778 1024Z" />
<glyph unicode="w" glyph-name="w" horiz-adv-x="1633" d="M1323 1024H1616L1321 0H989L838 600Q822 662 821 731H815Q807 648 795 604L633 0H305L16 1024H338L479 356Q490 310 494 242H500Q504 312 518 360L694 1024H995L1153 356Q1160 327 1167 240H1174Q1178
287 1190 356L1323 1024Z" />
<glyph unicode="x" glyph-name="x" horiz-adv-x="1131" d="M778 1024H1122L784 528L1120 0H756L608 276Q592 305 565 369H561Q547 330 520 279L371 0H8L354 510L29 1024H395L541 737Q571 677 582 641H586Q604 692 629 739L778 1024Z" />
<glyph unicode="y" glyph-name="y" horiz-adv-x="1102" d="M795 1024H1108L692 -82Q542 -481 240 -481Q126 -481 51 -455V-203Q113 -240 188 -240Q310 -240 358 -125L412 2L-4 1024H346L537 401Q554 345 565 264H569Q578 322 602 399L795 1024Z" />
<glyph unicode="z" glyph-name="z" horiz-adv-x="981" d="M944 233V0H25V131L539 791H76V1024H940V868L453 233H944Z" />
<glyph unicode="{" glyph-name="braceleft" horiz-adv-x="756" d="M674 -139V-326Q457 -326 357 -246Q258 -166 258 39V279Q258 463 106 463V647Q258 647 258 838V1061Q258 1267 356 1350Q454 1434 674 1434V1247Q514 1247 514 1073V860Q514 620 360 557V553Q514
492 514 246V41Q514 -57 551 -98T674 -139Z" />
<glyph unicode="|" glyph-name="bar" horiz-adv-x="668" d="M461 1567V-481H209V1567H461Z" />
<glyph unicode="}" glyph-name="braceright" horiz-adv-x="756" d="M651 647V463Q498 463 498 276V45Q498 -166 400 -246T84 -326V-139Q169 -139 206 -98T244 39V252Q244 491 397 551V555Q244 618 244 868V1073Q244 1247 84 1247V1434Q302 1434 400 1350Q498 1267
498 1065V836Q498 647 651 647Z" />
<glyph unicode="~" glyph-name="asciitilde" horiz-adv-x="1448" d="M1051 772H1255Q1249 603 1165 506Q1082 408 942 408Q835 408 684 496Q574 559 528 559Q405 559 399 399H195Q201 568 284 666Q368 764 512 764Q625 764 750 688Q880 610 930 610Q982 610 1015
654T1051 772Z" />
</font>
</defs>
</svg>
